<?xml version="1.0" encoding="UTF-8"?>
<svg xmlns="http://www.w3.org/2000/svg" viewBox="0 0 64 64" role="img" aria-label="Cake">
  <g fill="none" stroke="#e8b4b8" stroke-width="3.5" stroke-linecap="round" stroke-linejoin="round">
    <path d="M22 18c0-3.3 2.7-6 6-6h8c3.3 0 6 2.7 6 6"/>
    <path d="M32 10c2 2 2 4 0 6"/>
    <path d="M18 24h28c4.4 0 8 3.6 8 8v6H10v-6c0-4.4 3.6-8 8-8z"/>
    <path d="M12 38v10c0 2.2 1.8 4 4 4h32c2.2 0 4-1.8 4-4V38"/>
    <path d="M18 38c2.5 3 7.5 3 10 0 2.5 3 7.5 3 10 0 2.5 3 7.5 3 10 0"/>
  </g>
</svg>
