<?xml version="1.0" encoding="UTF-8"?>
<svg xmlns="http://www.w3.org/2000/svg" viewBox="0 0 64 64" role="img" aria-label="Flowers">
  <g fill="none" stroke="#d4919a" stroke-width="3.2" stroke-linecap="round" stroke-linejoin="round">
    <path d="M32 54V30"/>
    <path d="M32 54c-8 0-14-6-14-14"/>
    <path d="M32 54c8 0 14-6 14-14"/>
    <circle cx="32" cy="22" r="6"/>
    <path d="M32 10c3 2 5 5 5 8"/>
    <path d="M32 10c-3 2-5 5-5 8"/>
    <path d="M20 20c2 3 5 5 8 5"/>
    <path d="M44 20c-2 3-5 5-8 5"/>
    <path d="M22 30c3-1 6 0 8 2"/>
    <path d="M42 30c-3-1-6 0-8 2"/>
  </g>
</svg>
